<?xml version="1.0" encoding="UTF-8" standalone="no"?>
<!-- Created with Inkscape (http://www.inkscape.org/) -->

<svg
   width="16.933331mm"
   height="16.933334mm"
   viewBox="0 0 16.933331 16.933334"
   version="1.1"
   id="svg5"
   xml:space="preserve"
   xmlns="http://www.w3.org/2000/svg"
   xmlns:svg="http://www.w3.org/2000/svg"><defs
     id="defs2" /><g
     id="layer1"
     transform="translate(-53.776334,-78.731359)"><rect
       style="fill:#2dd4bf;fill-opacity:1;stroke-width:0"
       id="rect351"
       width="16.933332"
       height="16.933332"
       x="53.776333"
       y="78.731361"
       rx="4.2333331"
       ry="4.2333331" /><path
       fill="currentColor"
       d="M 66.053007,88.150522 H 59.3855 c -1.047751,0 -1.905001,0.85725 -1.905001,1.905 0,1.04776 0.85725,1.90501 1.905001,1.90501 h 6.667507 c 0.523868,0 0.952492,-0.42862 0.952492,-0.95251 v -1.905 c 0,-0.52388 -0.428624,-0.9525 -0.952492,-0.9525 m -6.667507,2.8575 c -0.523875,0 -0.952501,-0.42862 -0.952501,-0.9525 0,-0.52387 0.428626,-0.9525 0.952501,-0.9525 0.523872,0 0.952496,0.42863 0.952496,0.9525 0,0.52388 -0.428624,0.9525 -0.952496,0.9525 m 0.142875,-3.80999 3.190874,-3.19088 c 0.380997,-0.38101 0.952506,-0.38101 1.333503,0 l 1.333503,1.33349 c 0.380997,0.38101 0.380997,0.95251 0,1.33351 l -0.428624,0.52388 h -5.429256 m -2.047876,0.71436 v -4.52436 c 0,-0.523884 0.428625,-0.952508 0.9525,-0.952508 h 1.904997 c 0.523882,0 0.952506,0.428624 0.952506,0.952508 v 0.71436 z"
       id="path132"
       style="fill:#ffffff;fill-opacity:1;stroke-width:0.476251" /></g></svg>
